<svg xmlns="http://www.w3.org/2000/svg" width="358.783" height="100" viewBox="0 0 358.783 100"><defs><style>.a{fill:#1a4c2b;}.b{fill:#45ac54;}</style></defs><g transform="translate(-455.714 -321.554)"><g transform="translate(563.948 321.554)"><path class="a" d="M747.626,321.554H721.1l-42.127,100H707.77Z" transform="translate(-611.722 -321.554)"/><path class="b" d="M751.654,361.207l19.163,48.767a20.569,20.569,0,0,0,19.144,13.047H805.2a.162.162,0,0,0,.149-.226L765.5,328.517a.163.163,0,0,0-.3,0l-13.542,32.564a.161.161,0,0,0,0,.123" transform="translate(-627.272 -323.023)"/><path class="b" d="M830.953,355.441l-18.626-32.985H780.981l35.582,58.373Z" transform="translate(-633.55 -321.747)"/><path class="a" d="M863.623,322.456l-34.5,62.085.028.043v16.01A21.15,21.15,0,0,0,850.3,421.745h6.367V384.157l37.73-61.7Z" transform="translate(-643.852 -321.747)"/><path class="a" d="M636.106,322.456H594.085a.672.672,0,0,0-.672.673v77.753a20.862,20.862,0,0,0,20.862,20.863h5.98a.672.672,0,0,0,.674-.673V346.249a.673.673,0,0,1,.672-.673h12.378c9.788,0,15.885,4.4,15.885,12.907v.283c0,7.8-6.1,13.052-15.745,13.052h-9.094a.672.672,0,0,0-.673.671v20.216a.672.672,0,0,0,.673.672h9.664c24.537,0,42.55-12.34,42.55-35.887v-.283c0-21.845-16.169-34.752-41.133-34.752" transform="translate(-593.413 -321.747)"/></g><g transform="translate(455.714 321.554)"><path class="b" d="M488.937,325.646s-2.7-4.092-9.293-4.092h-23.93l33.175,48.419h30.86Z" transform="translate(-455.714 -321.554)"/><path class="a" d="M488.867,387.816,455.75,435.733h30.984l33.024-47.917Z" transform="translate(-455.722 -335.733)"/><path class="a" d="M541.861,321.554,523.583,348l15.284,21.987,33.378-48.433Z" transform="translate(-470.237 -321.554)"/><path class="b" d="M538.868,387.816h0L523.586,409.99l15.4,22.475a8.01,8.01,0,0,0,6.672,3.268h26.52Z" transform="translate(-470.238 -335.733)"/></g></g></svg>